<svg width="30" height="30" viewBox="0 0 30 30" fill="none" xmlns="http://www.w3.org/2000/svg">
<path d="M23.6842 23.6842C24.5217 23.6842 25.325 24.0169 25.9172 24.6091C26.5094 25.2014 26.8421 26.0046 26.8421 26.8421C26.8421 27.6796 26.5094 28.4829 25.9172 29.0751C25.325 29.6673 24.5217 30 23.6842 30C22.8467 30 22.0435 29.6673 21.4512 29.0751C20.859 28.4829 20.5263 27.6796 20.5263 26.8421C20.5263 26.0046 20.859 25.2014 21.4512 24.6091C22.0435 24.0169 22.8467 23.6842 23.6842 23.6842ZM23.6842 25.2632C23.2654 25.2632 22.8638 25.4295 22.5677 25.7256C22.2716 26.0217 22.1053 26.4233 22.1053 26.8421C22.1053 27.2609 22.2716 27.6625 22.5677 27.9586C22.8638 28.2547 23.2654 28.4211 23.6842 28.4211C24.103 28.4211 24.5046 28.2547 24.8007 27.9586C25.0968 27.6625 25.2632 27.2609 25.2632 26.8421C25.2632 26.4233 25.0968 26.0217 24.8007 25.7256C24.5046 25.4295 24.103 25.2632 23.6842 25.2632ZM9.47368 23.6842C10.3112 23.6842 11.1144 24.0169 11.7067 24.6091C12.2989 25.2014 12.6316 26.0046 12.6316 26.8421C12.6316 27.6796 12.2989 28.4829 11.7067 29.0751C11.1144 29.6673 10.3112 30 9.47368 30C8.63616 30 7.83294 29.6673 7.24072 29.0751C6.6485 28.4829 6.31579 27.6796 6.31579 26.8421C6.31579 26.0046 6.6485 25.2014 7.24072 24.6091C7.83294 24.0169 8.63616 23.6842 9.47368 23.6842ZM9.47368 25.2632C9.05492 25.2632 8.65331 25.4295 8.3572 25.7256C8.06109 26.0217 7.89474 26.4233 7.89474 26.8421C7.89474 27.2609 8.06109 27.6625 8.3572 27.9586C8.65331 28.2547 9.05492 28.4211 9.47368 28.4211C9.89245 28.4211 10.2941 28.2547 10.5902 27.9586C10.8863 27.6625 11.0526 27.2609 11.0526 26.8421C11.0526 26.4233 10.8863 26.0217 10.5902 25.7256C10.2941 25.4295 9.89245 25.2632 9.47368 25.2632ZM26.8421 4.73684H5.16789L9.18947 14.2105H22.1053C22.3508 14.2109 22.593 14.1537 22.8124 14.0434C23.0317 13.9332 23.2222 13.773 23.3684 13.5758L28.1053 7.26H28.1068C28.282 7.0253 28.3883 6.74653 28.4141 6.45484C28.4399 6.16315 28.3841 5.87003 28.2529 5.60825C28.1217 5.34647 27.9202 5.12633 27.6711 4.97245C27.422 4.81856 27.1349 4.73699 26.8421 4.73684ZM22.1053 15.7895H9.26211L8.05263 18.2526L7.89474 18.9474C7.89474 19.3661 8.06109 19.7677 8.3572 20.0639C8.65331 20.36 9.05492 20.5263 9.47368 20.5263H26.8421V22.1053H9.47368C8.92384 22.1055 8.38346 21.9622 7.906 21.6895C7.42854 21.4168 7.03056 21.0242 6.75143 20.5505C6.4723 20.0768 6.3217 19.5384 6.31452 18.9886C6.30735 18.4388 6.44385 17.8966 6.71053 17.4158L7.84737 15.0884L2.11263 1.57895H0V0H3.15789L4.49842 3.15789H26.8421C27.4388 3.15795 28.0232 3.32703 28.5277 3.64556C29.0322 3.96408 29.4361 4.41902 29.6927 4.95766C29.9493 5.49631 30.0481 6.09663 29.9776 6.68909C29.907 7.28155 29.6701 7.84191 29.2942 8.30526L24.6932 14.4411C24.4023 14.8576 24.0151 15.1977 23.5645 15.4325C23.1139 15.6672 22.6133 15.7897 22.1053 15.7895Z" fill="#0E64B6"/>
</svg>
