<svg width="19" height="20" viewBox="0 0 19 20" fill="none" xmlns="http://www.w3.org/2000/svg">
<path d="M9.5 0.5C12.0196 0.5 14.4359 1.50089 16.2175 3.28249C17.9991 5.06408 19 7.48044 19 10C19 12.5196 17.9991 14.9359 16.2175 16.7175C14.4359 18.4991 12.0196 19.5 9.5 19.5C6.98044 19.5 4.56408 18.4991 2.78249 16.7175C1.00089 14.9359 0 12.5196 0 10C0 7.48044 1.00089 5.06408 2.78249 3.28249C4.56408 1.50089 6.98044 0.5 9.5 0.5ZM9.5 1.5C7.24566 1.5 5.08365 2.39553 3.48959 3.98959C1.89553 5.58365 1 7.74566 1 10C1 12.2543 1.89553 14.4163 3.48959 16.0104C5.08365 17.6045 7.24566 18.5 9.5 18.5C11.7543 18.5 13.9163 17.6045 15.5104 16.0104C17.1045 14.4163 18 12.2543 18 10C18 7.74566 17.1045 5.58365 15.5104 3.98959C13.9163 2.39553 11.7543 1.5 9.5 1.5ZM9 4.5H10V9.923L14.696 12.634L14.196 13.5L9 10.5V4.5Z" fill="#0E64B6"/>
</svg>
