<svg width="13" height="20" viewBox="0 0 13 20" fill="none" xmlns="http://www.w3.org/2000/svg">
<path d="M6.499 4.49605C7.16204 4.49605 7.79793 4.75931 8.26677 5.2279C8.73561 5.69648 8.999 6.33203 8.999 6.99471C8.999 7.6574 8.73561 8.29294 8.26677 8.76153C7.79793 9.23012 7.16204 9.49337 6.499 9.49337C5.83596 9.49337 5.20007 9.23012 4.73123 8.76153C4.26239 8.29294 3.999 7.6574 3.999 6.99471C3.999 6.33203 4.26239 5.69648 4.73123 5.2279C5.20007 4.75931 5.83596 4.49605 6.499 4.49605ZM6.499 5.49552C6.10117 5.49552 5.71964 5.65347 5.43834 5.93462C5.15703 6.21578 4.999 6.5971 4.999 6.99471C4.999 7.39232 5.15703 7.77365 5.43834 8.0548C5.71964 8.33596 6.10117 8.49391 6.499 8.49391C6.89682 8.49391 7.27836 8.33596 7.55966 8.0548C7.84096 7.77365 7.999 7.39232 7.999 6.99471C7.999 6.5971 7.84096 6.21578 7.55966 5.93462C7.27836 5.65347 6.89682 5.49552 6.499 5.49552ZM1.799 9.85018L6.499 17.576L11.199 9.85018C11.7059 9.01663 11.9817 8.06329 11.9982 7.08799C12.0147 6.1127 11.7712 5.15059 11.2928 4.3004C10.8144 3.45021 10.1182 2.74257 9.27577 2.25011C8.43333 1.75764 7.47496 1.49809 6.499 1.49809C5.52304 1.49809 4.56467 1.75764 3.72222 2.25011C2.87978 2.74257 2.18362 3.45021 1.70519 4.3004C1.22677 5.15059 0.9833 6.1127 0.999785 7.08799C1.01627 8.06329 1.29211 9.01663 1.799 9.85018ZM12.053 10.3699L6.499 19.5L0.945 10.3699C0.346122 9.38478 0.020281 8.25814 0.000916494 7.10559C-0.018448 5.95304 0.269361 4.8161 0.834808 3.81144C1.40026 2.80677 2.22298 1.97057 3.21854 1.38864C4.21411 0.806703 5.34667 0.5 6.5 0.5C7.65333 0.5 8.78589 0.806703 9.78146 1.38864C10.777 1.97057 11.5997 2.80677 12.1652 3.81144C12.7306 4.8161 13.0184 5.95304 12.9991 7.10559C12.9797 8.25814 12.6539 9.38478 12.055 10.3699H12.053Z" fill="#0E64B6"/>
</svg>
