<?xml version="1.0" encoding="UTF-8"?> <svg xmlns="http://www.w3.org/2000/svg" width="60" height="80" viewBox="0 0 60 80" fill="none"><path d="M30.0188 80L8.79376 56.5616C4.59622 51.9293 1.73704 46.0264 0.577893 39.5995C-0.581256 33.1727 0.0116968 26.5105 2.28175 20.4558C4.5518 14.4011 8.39695 9.22583 13.3309 5.58466C18.2648 1.9435 24.0657 0 30 0C35.9343 0 41.7352 1.9435 46.6691 5.58466C51.603 9.22583 55.4482 14.4011 57.7183 20.4558C59.9883 26.5105 60.5813 33.1727 59.4221 39.5995C58.263 46.0264 55.4038 51.9293 51.2062 56.5616L30.0188 80Z" fill="#0E64B6"></path><path d="M45 30C45 38.2843 38.2843 45 30 45C21.7157 45 15 38.2843 15 30C15 21.7157 21.7157 15 30 15C38.2843 15 45 21.7157 45 30Z" fill="white"></path></svg> 