<svg width="19" height="20" viewBox="0 0 19 20" fill="none" xmlns="http://www.w3.org/2000/svg">
<path d="M17.5 19.5C18.327 19.5 19 18.827 19 18V14.5C19 13.673 18.327 13 17.5 13C16.33 13 15.18 12.816 14.08 12.453C13.8171 12.37 13.5365 12.3599 13.2683 12.4238C13.0001 12.4877 12.7542 12.6233 12.557 12.816L11.117 14.256C8.62811 12.9048 6.58403 10.8614 5.232 8.373L6.66 6.936C7.072 6.554 7.22 5.973 7.044 5.414C6.68174 4.3123 6.49808 3.15973 6.5 2C6.5 1.173 5.827 0.5 5 0.5H1.5C0.673 0.5 0 1.173 0 2C0 11.65 7.85 19.5 17.5 19.5ZM1.5 1.5H5C5.13261 1.5 5.25979 1.55268 5.35355 1.64645C5.44732 1.74021 5.5 1.86739 5.5 2C5.5 3.277 5.7 4.531 6.093 5.72C6.12187 5.80628 6.12525 5.89906 6.10273 5.98721C6.0802 6.07536 6.03273 6.15515 5.966 6.217L4.01 8.183C5.647 11.411 8.065 13.829 11.308 15.48L13.257 13.53C13.3235 13.4642 13.4067 13.4177 13.4975 13.3955C13.5884 13.3733 13.6836 13.3762 13.773 13.404C14.969 13.8 16.223 14 17.5 14C17.775 14 18 14.225 18 14.5V18C18 18.275 17.775 18.5 17.5 18.5C8.402 18.5 1 11.098 1 2C1 1.86739 1.05268 1.74021 1.14645 1.64645C1.24021 1.55268 1.36739 1.5 1.5 1.5Z" fill="#0E64B6"/>
</svg>
