<?xml version="1.0" encoding="UTF-8"?> <svg xmlns="http://www.w3.org/2000/svg" width="60" height="60" viewBox="0 0 60 60" fill="none"><path d="M43.13 57.2243C42.2478 58.1043 41.2005 58.8024 40.0478 59.2786C38.8951 59.7549 37.6596 60 36.4119 60C35.1642 60 33.9288 59.7549 32.7761 59.2786C31.6234 58.8024 30.576 58.1043 29.6938 57.2243L3.33767 31.5699C1.425 29.8392 0 27.2557 0 24.4764V9.47475C0 6.96189 1.00089 4.55195 2.78249 2.77509C4.56408 0.99823 6.98045 0 9.5 0H24.5417C27.3283 0 29.9187 1.42437 31.654 3.3288L57.2185 29.7728C58.9995 31.5496 60 33.9591 60 36.4715C60 38.9838 58.9995 41.3934 57.2185 43.1701L43.1269 57.2243H43.13ZM40.888 54.9915L54.9797 40.9372C56.167 39.7527 56.834 38.1464 56.834 36.4715C56.834 34.7966 56.167 33.1902 54.9797 32.0057L28.8547 5.00267C27.7907 3.78043 26.2897 3.15825 24.5417 3.15825L9.41451 3.07298C5.92167 3.07298 3.16667 5.98488 3.16667 9.47475V24.4764C3.16667 26.2198 3.7905 27.7168 5.016 28.778L31.9327 54.9915C33.1204 56.1756 34.731 56.8408 36.4104 56.8408C38.0897 56.8408 39.7003 56.1756 40.888 54.9915ZM14.25 6.3165C16.3496 6.3165 18.3633 7.14836 19.8479 8.62908C21.3326 10.1098 22.1667 12.1181 22.1667 14.2121C22.1667 16.3062 21.3326 18.3145 19.8479 19.7952C18.3633 21.2759 16.3496 22.1078 14.25 22.1078C12.1504 22.1078 10.1367 21.2759 8.65208 19.7952C7.16741 18.3145 6.33334 16.3062 6.33334 14.2121C6.33334 12.1181 7.16741 10.1098 8.65208 8.62908C10.1367 7.14836 12.1504 6.3165 14.25 6.3165ZM14.25 9.47475C12.9902 9.47475 11.782 9.97387 10.8912 10.8623C10.0004 11.7507 9.5 12.9557 9.5 14.2121C9.5 15.4686 10.0004 16.6735 10.8912 17.562C11.782 18.4504 12.9902 18.9495 14.25 18.9495C15.5098 18.9495 16.718 18.4504 17.6088 17.562C18.4996 16.6735 19 15.4686 19 14.2121C19 12.9557 18.4996 11.7507 17.6088 10.8623C16.718 9.97387 15.5098 9.47475 14.25 9.47475Z" fill="#0E64B6"></path></svg> 