<?xml version="1.0" encoding="UTF-8"?> <svg xmlns="http://www.w3.org/2000/svg" width="60" height="60" viewBox="0 0 60 60" fill="none"><path d="M2.85714 24.9644H11.4286C12.1863 24.9644 12.9131 25.3 13.4489 25.8973C13.9847 26.4946 14.2857 27.3048 14.2857 28.1495V56.8149C14.2857 57.6597 13.9847 58.4698 13.4489 59.0671C12.9131 59.6644 12.1863 60 11.4286 60H2.85714C2.09938 60 1.37266 59.6644 0.836838 59.0671C0.301019 58.4698 0 57.6597 0 56.8149V28.1495C0 27.3048 0.301019 26.4946 0.836838 25.8973C1.37266 25.3 2.09938 24.9644 2.85714 24.9644ZM2.85714 28.1495V56.8149H11.4286V28.1495H2.85714ZM47.76 53.7095L56.3343 37.7843C56.8486 36.8288 57.1429 35.714 57.1429 34.5196V31.3345C57.1429 29.6451 56.5408 28.0248 55.4692 26.8302C54.3975 25.6356 52.9441 24.9644 51.4286 24.9644H35.4L39.5629 7.63775L39.5771 7.58042C39.7073 7.04057 39.7077 6.47204 39.5783 5.93197C39.4489 5.39189 39.1943 4.89929 38.84 4.50366L21.6714 23.6426C21.1402 24.234 20.719 24.9366 20.4322 25.7101C20.1454 26.4835 19.9985 27.3126 20 28.1495V50.4449C20 52.1343 20.602 53.7546 21.6737 54.9492C22.7453 56.1438 24.1988 56.8149 25.7143 56.8149H42.8571C44.9429 56.8149 46.7657 55.5728 47.76 53.7095ZM60 34.5196C60 36.4115 59.5086 38.1728 58.6571 39.6539L50.3543 55.0791C49.6123 56.5705 48.5257 57.8134 47.2074 58.6787C45.8891 59.5441 44.387 60.0003 42.8571 60H25.7143C23.441 60 21.2608 58.9933 19.6534 57.2014C18.0459 55.4094 17.1429 52.979 17.1429 50.4449V28.1495C17.1429 25.5123 18.1 23.1267 19.6486 21.3972L38.84 0L40.86 2.25183C41.5828 3.05764 42.0985 4.06486 42.3533 5.16847C42.6081 6.27209 42.5927 7.43169 42.3086 8.52638L39.1229 21.7794H51.4286C53.7019 21.7794 55.882 22.7861 57.4895 24.578C59.0969 26.37 60 28.8004 60 31.3345V34.5196Z" fill="#0E64B6"></path></svg> 