<?xml version="1.0" encoding="UTF-8"?> <svg xmlns="http://www.w3.org/2000/svg" width="30" height="30" viewBox="0 0 30 30" fill="none"><path d="M25.95 12.5901C25.986 8.35975 22.2865 4.48193 17.7037 3.9451C17.6047 3.93307 17.506 3.91844 17.4078 3.90121C17.1774 3.85827 16.9438 3.83381 16.7093 3.82808C15.7691 3.82808 15.5182 4.4717 15.4521 4.85348C15.3875 5.22649 15.4491 5.54098 15.6339 5.78526C15.9448 6.1963 16.493 6.26944 16.9331 6.32795C17.0608 6.34551 17.1825 6.3616 17.2846 6.38354C21.4032 7.28022 22.7896 8.68887 23.4671 12.6661C23.4836 12.7627 23.4911 12.8826 23.5001 13.0099C23.5302 13.4853 23.5902 14.4741 24.6822 14.4741C24.7724 14.4741 24.8715 14.4668 24.9736 14.4522C25.989 14.3015 25.9575 13.3975 25.9424 12.9631C25.9379 12.8402 25.9334 12.7247 25.9455 12.6471C25.9478 12.6277 25.9488 12.6082 25.9485 12.5886L25.95 12.5901Z" fill="#51C85D"></path><path d="M16.442 2.3931C16.5651 2.40187 16.6793 2.41065 16.7754 2.42381C23.5392 3.43752 26.6499 6.55761 27.5106 13.1957C27.5256 13.3083 27.5286 13.4458 27.5301 13.5906C27.5391 14.1099 27.5572 15.1894 28.7468 15.2114H28.7828C29.1568 15.2114 29.4527 15.1017 29.666 14.8852C30.0355 14.5092 30.0115 13.949 29.989 13.4985C29.9845 13.3873 29.98 13.2834 29.98 13.1913C30.0671 6.40402 24.0318 0.247209 17.0683 0.019016C17.0383 0.019016 17.0112 0.019016 16.9842 0.0234044C16.9568 0.0267712 16.9292 0.0282377 16.9016 0.0277927C16.831 0.0277927 16.7469 0.0219416 16.6553 0.0160905C16.5471 0.00877663 16.4224 0 16.2948 0C15.1863 0 14.976 0.767955 14.9489 1.2258C14.8873 2.28339 15.9373 2.35799 16.442 2.3931ZM27.1846 21.7748C27.0395 21.6674 26.8958 21.5582 26.7536 21.4472C26.0145 20.8679 25.229 20.3355 24.4704 19.8191L23.9973 19.4973C23.024 18.8317 22.1498 18.5085 21.3236 18.5085C20.2091 18.5085 19.2388 19.1082 18.4367 20.2887C18.0822 20.8123 17.6511 21.0668 17.1209 21.0668C16.7526 21.0543 16.3912 20.9661 16.0604 20.8079C12.9212 19.4212 10.6771 17.2944 9.39434 14.4873C8.77399 13.1298 8.97527 12.2434 10.0658 11.5208C10.6861 11.1112 11.8382 10.3491 11.7586 8.8878C11.6654 7.23048 7.90881 2.24097 6.32565 1.67487C5.64885 1.43445 4.90698 1.43238 4.22878 1.66902C2.4098 2.26437 1.10602 3.31172 0.452624 4.69404C-0.178237 6.03101 -0.148196 7.60056 0.533735 9.23302C2.50893 13.9534 5.28473 18.0696 8.78601 21.4662C12.2122 24.7911 16.4239 27.5133 21.3026 29.5597C21.7427 29.744 22.2038 29.8449 22.5418 29.9181C22.656 29.9429 22.7551 29.9649 22.8272 29.9839C22.8669 29.9943 22.9078 29.9997 22.9489 30H22.9879C25.283 30 28.0393 27.958 28.885 25.6307C29.627 23.5916 28.2721 22.5837 27.1846 21.7748ZM17.4574 7.78634C17.0653 7.79511 16.2467 7.81559 15.9598 8.62597C15.8246 9.00629 15.8411 9.33395 16.0079 9.60456C16.2512 9.99951 16.7183 10.1224 17.1419 10.1897C18.6815 10.4296 19.4731 11.2575 19.6308 12.7978C19.7044 13.5146 20.2016 14.0163 20.837 14.0163C20.8852 14.0162 20.9333 14.0133 20.9812 14.0075C21.7472 13.9197 22.1182 13.3712 22.0852 12.378C22.0972 11.3423 21.5414 10.1663 20.5936 9.23009C19.6443 8.29099 18.4998 7.76147 17.4574 7.78634Z" fill="#51C85D"></path></svg> 