<?xml version="1.0" encoding="UTF-8"?> <svg xmlns="http://www.w3.org/2000/svg" width="90" height="60" viewBox="0 0 90 60" fill="none"><path d="M19.2857 38.5645C21.7557 38.564 24.15 39.4168 26.0634 40.9784C27.9768 42.5401 29.2917 44.7148 29.7857 47.1344H60V4.28495H12.8571C10.5839 4.28495 8.40368 5.18784 6.79623 6.79501C5.18877 8.40218 4.28571 10.582 4.28571 12.8548V47.1344H8.78571C9.27971 44.7148 10.5947 42.5401 12.5081 40.9784C14.4215 39.4168 16.8157 38.564 19.2857 38.5645ZM19.2857 59.9893C16.8157 59.9898 14.4215 59.137 12.5081 57.5754C10.5947 56.0137 9.27971 53.839 8.78571 51.4194H0V12.8548C0 9.44553 1.35459 6.17585 3.76577 3.7651C6.17695 1.35435 9.44722 0 12.8571 0H60C61.1366 0 62.2267 0.451449 63.0305 1.25503C63.8342 2.05862 64.2857 3.14851 64.2857 4.28495V12.8548H77.1429L90 29.9132V51.4194H81.2143C80.7225 53.841 79.4084 56.0181 77.4948 57.5819C75.5812 59.1457 73.1858 60 70.7143 60C68.2428 60 65.8473 59.1457 63.9337 57.5819C62.0201 56.0181 60.7061 53.841 60.2143 51.4194H29.7857C29.2917 53.839 27.9768 56.0137 26.0634 57.5754C24.15 59.137 21.7557 59.9898 19.2857 59.9893ZM19.2857 42.8495C17.5808 42.8495 15.9456 43.5266 14.74 44.732C13.5344 45.9374 12.8571 47.5722 12.8571 49.2769C12.8571 50.9816 13.5344 52.6164 14.74 53.8218C15.9456 55.0271 17.5808 55.7043 19.2857 55.7043C20.9907 55.7043 22.6258 55.0271 23.8314 53.8218C25.037 52.6164 25.7143 50.9816 25.7143 49.2769C25.7143 47.5722 25.037 45.9374 23.8314 44.732C22.6258 43.5266 20.9907 42.8495 19.2857 42.8495ZM70.7143 38.5645C73.1842 38.564 75.5785 39.4168 77.4919 40.9784C79.4053 42.5401 80.7203 44.7148 81.2143 47.1344H85.7143V31.3487L84.6943 29.9946H64.2857V40.707C66.1389 39.3135 68.3955 38.5614 70.7143 38.5645ZM70.7143 42.8495C69.0093 42.8495 67.3742 43.5266 66.1686 44.732C64.963 45.9374 64.2857 47.5722 64.2857 49.2769C64.2857 50.9816 64.963 52.6164 66.1686 53.8218C67.3742 55.0271 69.0093 55.7043 70.7143 55.7043C72.4192 55.7043 74.0544 55.0271 75.26 53.8218C76.4656 52.6164 77.1429 50.9816 77.1429 49.2769C77.1429 47.5722 76.4656 45.9374 75.26 44.732C74.0544 43.5266 72.4192 42.8495 70.7143 42.8495ZM64.2857 17.1398V25.7097H81.4671L75 17.1398H64.2857Z" fill="#0E64B6"></path></svg> 