<?xml version="1.0" encoding="UTF-8"?> <svg xmlns="http://www.w3.org/2000/svg" width="14" height="14" viewBox="0 0 14 14" fill="none"><path d="M7 0C8.85651 0 10.637 0.737498 11.9497 2.05025C13.2625 3.36301 14 5.14348 14 7C14 8.85651 13.2625 10.637 11.9497 11.9497C10.637 13.2625 8.85651 14 7 14C5.14348 14 3.36301 13.2625 2.05025 11.9497C0.737498 10.637 0 8.85651 0 7C0 5.14348 0.737498 3.36301 2.05025 2.05025C3.36301 0.737498 5.14348 0 7 0ZM7 0.736842C5.33891 0.736842 3.74585 1.39671 2.57128 2.57128C1.39671 3.74585 0.736842 5.33891 0.736842 7C0.736842 8.66109 1.39671 10.2542 2.57128 11.4287C3.74585 12.6033 5.33891 13.2632 7 13.2632C8.66109 13.2632 10.2542 12.6033 11.4287 11.4287C12.6033 10.2542 13.2632 8.66109 13.2632 7C13.2632 5.33891 12.6033 3.74585 11.4287 2.57128C10.2542 1.39671 8.66109 0.736842 7 0.736842ZM6.63158 2.94737H7.36842V6.94326L10.8286 8.94084L10.4602 9.57895L6.63158 7.36842V2.94737Z" fill="#212121"></path></svg> 