<?xml version="1.0" encoding="UTF-8"?> <svg xmlns="http://www.w3.org/2000/svg" width="15" height="17" viewBox="0 0 15 17" fill="none"><path d="M1 4H2.44444M2.44444 4H14M2.44444 4V14.5C2.44444 14.8978 2.59663 15.2794 2.86751 15.5607C3.1384 15.842 3.5058 16 3.88889 16H11.1111C11.4942 16 11.8616 15.842 12.1325 15.5607C12.4034 15.2794 12.5556 14.8978 12.5556 14.5V4M4.61111 4V2.5C4.61111 2.10218 4.76329 1.72064 5.03418 1.43934C5.30507 1.15804 5.67246 1 6.05556 1H8.94444C9.32753 1 9.69493 1.15804 9.96582 1.43934C10.2367 1.72064 10.3889 2.10218 10.3889 2.5V4" stroke="#0E64B6" stroke-linecap="round" stroke-linejoin="round"></path></svg> 